<?xml version="1.0" encoding="UTF-8"?>
<svg xmlns="http://www.w3.org/2000/svg" viewBox="0 0 56.45 71.58">
  <path d="M35.98,21.63c-1.28,1.15-2.5,2.37-3.66,3.65,2.03,2.99,2.71,6.71,1.84,10.22C30.78,51.51,4.31,68.84,0,71.57h9.04c9.44-6.68,25.81-19.83,29.84-33.25.17,1.41.18,2.84.02,4.26-1.41,12.74-14.91,24.29-21.16,29h8.55c7.32-6.35,16.87-16.71,18.17-28.46.04-.29.03-.58.04-.87,1.07,2.87,1.55,5.93,1.43,8.99-.51,10.85-9.05,18.55-11.23,20.34h7.77c3.82-4.19,8.6-11.13,9.04-20.05.49-9.86-4.41-19.6-14.56-28.96-.35-.32-.81-.77-.97-.92v-.02ZM21.29,44.65c-2.25-3.94-2.69-8.67-1.19-12.95C24.58,17.99,44.83,5.95,56.45,0h-11.07c-11.99,7.02-26.57,17.75-30.63,30.2-.2.62-.35,1.24-.5,1.85-.35-2.05-.33-4.15.05-6.2C16.5,13.98,29.7,4.39,36.8,0h-9.51c-6.87,5.12-14.83,12.72-17.75,21.99,0-.68-.05-1.35,0-2.03C10.12,10.87,15.75,3.73,19.39,0h-7.25c-3.72,4.62-7.64,11.34-8.18,19.59-.67,10.03,3.93,19.98,13.43,29.39,1.41-1.43,2.72-2.88,3.9-4.32h0Z" fill="#0057b8" stroke-width="0"/>
</svg>