<svg xmlns="http://www.w3.org/2000/svg" width="385" height="73.474" viewBox="0 0 385 73.474">
  <path data-name="Path 489" d="M68.92,22.067h3.939c.178,3.066,2.157,4.6,6.167,4.6,3.413,0,5.5-1.078,5.5-3.583,0-1.809-.971-2.718-4.492-3.52l-3.271-.731c-5.151-1.221-7.139-3.137-7.139-6.863,0-3.966,2.995-6.934,8.814-6.934s8.948,2.611,9.331,7.558H83.831c-.241-2.825-2.121-4.037-5.4-4.037-3.1,0-4.875.971-4.875,3.137,0,1.809.909,2.718,4.251,3.485l3.271.731c5.294,1.221,7.38,3.2,7.38,6.934,0,4.8-3.832,7.344-9.438,7.344-6.1,0-9.893-2.79-10.1-8.11ZM92.7,25.481v-9.51H90.328V12.665H92.7V7.754h3.761v4.911h3.556v3.307H96.459v8.636c0,1.39.383,2.121,2.059,2.121a6.627,6.627,0,0,0,1.5-.178v3.235a11.746,11.746,0,0,1-2.433.312c-3.592,0-4.875-1.845-4.875-4.634Zm25.285-.873a7.445,7.445,0,0,1-7.665,5.57c-5.018,0-8.4-3.52-8.4-8.948,0-6.06,3.832-8.948,8.146-8.948,4.875,0,7.834,3.654,7.834,8.636V21.96H105.782c.2,3.449,1.987,5.018,4.527,5.018,2.086,0,3.173-.8,3.8-2.371h3.868ZM105.9,19.349h8.048c-.205-2.683-1.6-3.966-3.868-3.966s-3.725,1.185-4.18,3.966Zm15.668-9.822V5.838h3.939v3.69Zm.071,20.267V12.665H125.4v17.13Zm8.636,0V12.665h3.592v2.192a5.789,5.789,0,0,1,5.116-2.576c4.037,0,6.061,2.228,6.061,7.175V29.8H141.28V19.777c0-2.959-1.007-4.109-3.235-4.109-2.754,0-4,1.845-4,5.053v9.091h-3.761Zm23.048-2.086v2.086h-3.592V5.419h3.761v9.3a5.989,5.989,0,0,1,5.018-2.442c4.634,0,7.665,3.52,7.665,8.948s-3.03,8.948-7.691,8.948A6.085,6.085,0,0,1,153.33,27.7Zm9.091-6.479c0-3.69-1.676-5.642-4.492-5.642s-4.492,1.952-4.492,5.642,1.64,5.642,4.492,5.642S162.412,24.884,162.412,21.229Zm6.506,4.073c0-3.52,3.1-4.706,6.577-5.294l4.421-.766v-.588c0-2.469-1.185-3.307-3.342-3.307s-3.235.873-3.449,2.611h-3.8c.241-3.761,3.378-5.677,7.379-5.677,4.67,0,7,2.023,7,7.1v10.41h-3.619V27.459a5.952,5.952,0,0,1-5.463,2.718c-3.618,0-5.713-1.7-5.713-4.875Zm11.007-2.023V22.023l-3.378.561c-2.371.419-3.868.8-3.868,2.5,0,1.355.909,2.059,2.959,2.059a4.028,4.028,0,0,0,4.287-3.868Zm7.308-2.059c0-5.437,3.208-8.948,8.182-8.948a7.412,7.412,0,0,1,7.727,6.1h-3.868a3.777,3.777,0,0,0-3.868-2.79c-2.79,0-4.456,1.987-4.456,5.642s1.676,5.642,4.456,5.642a3.773,3.773,0,0,0,3.939-3.066h3.832a7.475,7.475,0,0,1-7.763,6.372C190.432,30.169,187.233,26.648,187.233,21.221Zm19.322,8.565V5.419h3.761v9.367a5.507,5.507,0,0,1,4.982-2.5c4,0,6.025,2.228,6.025,7.175V29.8h-3.761V19.777c0-2.959-1.007-4.109-3.235-4.109-2.754,0-4,1.845-4,5.053v9.091h-3.761Zm29,0V5.419h16.96V9.073H239.5v6.408H250.85v3.654H239.5v7h13.44v3.654H235.556Zm19.393-8.565c0-5.437,3.209-8.948,8.182-8.948a7.412,7.412,0,0,1,7.727,6.1H266.99a3.777,3.777,0,0,0-3.868-2.79c-2.79,0-4.456,1.987-4.456,5.642s1.676,5.642,4.456,5.642a3.773,3.773,0,0,0,3.939-3.066h3.832a7.475,7.475,0,0,1-7.763,6.372c-4.982,0-8.182-3.52-8.182-8.948Zm18.074,0c0-5.437,3.271-8.948,8.288-8.948s8.253,3.52,8.253,8.948-3.235,8.948-8.253,8.948S273.024,26.648,273.024,21.221Zm12.745,0c0-3.69-1.64-5.642-4.456-5.642s-4.492,1.952-4.492,5.642,1.64,5.642,4.492,5.642S285.769,24.875,285.769,21.221Zm7.522,8.565V12.665h3.592v2.192A5.789,5.789,0,0,1,302,12.281c4.038,0,6.061,2.228,6.061,7.175V29.8H304.3V19.777c0-2.959-1.007-4.109-3.235-4.109-2.754,0-4,1.845-4,5.053v9.091H293.3Zm18.315-8.565c0-5.437,3.271-8.948,8.288-8.948s8.253,3.52,8.253,8.948-3.235,8.948-8.253,8.948S311.606,26.648,311.606,21.221Zm12.745,0c0-3.69-1.64-5.642-4.456-5.642s-4.492,1.952-4.492,5.642,1.64,5.642,4.492,5.642S324.351,24.875,324.351,21.221Zm32.593-1.774V29.794h-3.8V19.661c0-2.888-.936-4-3.066-4-2.611,0-3.8,1.809-3.8,5.116v9.019h-3.761V19.661c0-2.888-.972-4-3.1-4-2.611,0-3.8,1.809-3.8,5.116v9.019h-3.761V12.665h3.592v2.192a5.567,5.567,0,0,1,4.911-2.576,5.076,5.076,0,0,1,5.018,2.888,6.025,6.025,0,0,1,5.463-2.888c4.037,0,6.1,2.228,6.1,7.175ZM361.5,9.518V5.829h3.939v3.69Zm.071,20.267V12.665h3.761v17.13h-3.761Zm7.486-8.565c0-5.437,3.209-8.948,8.182-8.948a7.411,7.411,0,0,1,7.727,6.1H381.1a3.777,3.777,0,0,0-3.868-2.79c-2.79,0-4.456,1.987-4.456,5.642s1.675,5.642,4.456,5.642a3.773,3.773,0,0,0,3.939-3.066H385a7.475,7.475,0,0,1-7.763,6.372c-4.982,0-8.182-3.52-8.182-8.948ZM70.453,65.988V41.612h7.558c8.182,0,13.2,4.287,13.2,12.05S86.3,65.988,78.251,65.988Zm3.939-3.654h3.69c5.882,0,9.2-2.995,9.2-8.6s-3.307-8.467-9.2-8.467h-3.69ZM110.22,60.8a7.445,7.445,0,0,1-7.665,5.57c-5.018,0-8.4-3.52-8.4-8.948,0-6.06,3.832-8.948,8.146-8.948,4.875,0,7.834,3.654,7.834,8.636v1.043H98.019c.205,3.449,1.987,5.018,4.527,5.018,2.086,0,3.173-.8,3.8-2.371h3.868ZM98.135,55.542h8.048c-.205-2.683-1.6-3.966-3.868-3.966S98.59,52.762,98.135,55.542Zm19.394,10.445-6.372-17.13h4.037l4.216,12.4,4.216-12.4h3.868l-6.265,17.13h-3.69ZM144.551,60.8a7.445,7.445,0,0,1-7.665,5.57c-5.018,0-8.4-3.52-8.4-8.948,0-6.06,3.832-8.948,8.146-8.948,4.875,0,7.834,3.654,7.834,8.636v1.043H132.35c.2,3.449,1.987,5.018,4.528,5.018,2.085,0,3.173-.8,3.8-2.371h3.868Zm-12.085-5.258h8.048c-.2-2.683-1.6-3.966-3.868-3.966S132.92,52.762,132.466,55.542Zm15.739,6.337V41.612h3.761V61.041c0,1.319.419,1.881,1.6,1.881a5.774,5.774,0,0,0,.766-.036v3.137a6.968,6.968,0,0,1-1.569.205c-3.271,0-4.563-1.462-4.563-4.349Zm7.87-4.456c0-5.437,3.271-8.948,8.289-8.948s8.253,3.52,8.253,8.948-3.235,8.948-8.253,8.948S156.075,62.851,156.075,57.423Zm12.745,0c0-3.69-1.64-5.642-4.456-5.642s-4.492,1.952-4.492,5.642,1.64,5.642,4.492,5.642S168.82,61.077,168.82,57.423Zm7.522,16.051V48.849h3.592v2.157a6.143,6.143,0,0,1,5.223-2.54c4.634,0,7.629,3.52,7.629,8.948s-3.1,8.948-7.629,8.948a6.041,6.041,0,0,1-5.053-2.3v9.4h-3.761Zm12.674-16.051c0-3.69-1.676-5.642-4.492-5.642s-4.492,1.952-4.492,5.642,1.64,5.642,4.492,5.642S189.015,61.077,189.015,57.423Zm32.521-1.774V66h-3.8V55.863c0-2.888-.936-4-3.066-4-2.611,0-3.8,1.809-3.8,5.116V66h-3.761V55.863c0-2.888-.971-4-3.1-4-2.611,0-3.8,1.809-3.8,5.116V66h-3.761V48.867h3.592v2.192a5.566,5.566,0,0,1,4.911-2.576,5.075,5.075,0,0,1,5.018,2.888,6.025,6.025,0,0,1,5.463-2.888c4.037,0,6.1,2.228,6.1,7.175ZM241.073,60.8a7.445,7.445,0,0,1-7.665,5.57c-5.018,0-8.4-3.52-8.4-8.948,0-6.06,3.832-8.948,8.146-8.948,4.875,0,7.834,3.654,7.834,8.636v1.043H228.872c.205,3.449,1.987,5.018,4.527,5.018,2.086,0,3.173-.8,3.8-2.371h3.868Zm-12.085-5.258h8.048c-.2-2.683-1.6-3.966-3.868-3.966S229.442,52.762,228.988,55.542Zm15.739,10.445V48.858h3.592V51.05a5.789,5.789,0,0,1,5.116-2.576c4.037,0,6.06,2.228,6.06,7.174V66h-3.761V55.97c0-2.959-1.007-4.109-3.235-4.109-2.754,0-4,1.845-4,5.053v9.091h-3.761Zm19.955-4.323v-9.51h-2.371V48.849h2.371V43.938h3.761v4.911H272v3.307h-3.556v8.636c0,1.39.383,2.121,2.059,2.121a6.63,6.63,0,0,0,1.5-.178V65.97a11.758,11.758,0,0,1-2.442.312c-3.583,0-4.875-1.845-4.875-4.634ZM35.98,21.631a50.577,50.577,0,0,0-3.663,3.645A12.777,12.777,0,0,1,34.161,35.5C30.784,51.514,4.314,68.84,0,71.567H9.037c9.438-6.675,25.81-19.83,29.839-33.252a18.4,18.4,0,0,1,.018,4.26c-1.408,12.745-14.911,24.286-21.158,29h8.547C33.6,65.23,43.154,54.865,44.455,43.118c.036-.294.027-.579.045-.873a23.161,23.161,0,0,1,1.426,8.993C45.418,62.084,36.88,69.784,34.7,71.576h7.772c3.823-4.189,8.6-11.132,9.037-20.053.49-9.857-4.412-19.6-14.563-28.957-.348-.321-.811-.766-.971-.918ZM21.292,44.651A15.665,15.665,0,0,1,20.106,31.7C24.581,17.994,44.83,5.945,56.451,0H45.382C33.395,7.023,18.814,17.754,14.75,30.2c-.2.624-.348,1.239-.5,1.854a17.907,17.907,0,0,1,.045-6.2C16.5,13.975,29.7,4.385,36.8,0H27.29C20.418,5.116,12.46,12.718,9.536,21.987c-.009-.677-.053-1.355,0-2.032C10.125,10.873,15.748,3.734,19.393,0H12.139C8.422,4.617,4.5,11.337,3.957,19.59c-.668,10.035,3.93,19.982,13.431,29.393,1.408-1.426,2.718-2.879,3.9-4.323Z" fill="#0057b8"/>
</svg>
