<svg xmlns="http://www.w3.org/2000/svg" width="36.389" height="32.462" viewBox="0 0 36.389 32.462">
  <path d="M10.519,52.6a1.2,1.2,0,0,1,0-2.395c4.418.015,16.072,0,20.631.007a2.65,2.65,0,0,0,2.594-2.063l2.589-11.21a2.154,2.154,0,0,0-2.09-2.639c-1.834,0-17.4-.07-25.375-.1L7.6,29.512a2.582,2.582,0,0,0-2.487-1.9H1.067a1.067,1.067,0,1,0,0,2.133H5.116a.444.444,0,0,1,.428.327L10.4,48.079a3.329,3.329,0,0,0-3.209,3.386,3.347,3.347,0,0,0,3.33,3.273h1.555a3.733,3.733,0,1,0,6.745,0h6.735a3.734,3.734,0,1,0,6.718-.056,1.066,1.066,0,0,0-.34-2.077Zm6.528,3.733a1.6,1.6,0,1,1-1.6-1.6h0A1.6,1.6,0,0,1,17.047,56.338Zm11.88,1.6a1.6,1.6,0,0,1-.026-3.2h.052a1.6,1.6,0,0,1-.026,3.2ZM34.25,36.446a.017.017,0,0,1,0,.018l-1.091,4.723H29.47l.629-4.766,4.135.017A.017.017,0,0,1,34.25,36.446Zm-11,11.638V43.32h3.783l-.629,4.763Zm-5.289,0L17.33,43.32h3.79v4.763Zm-4.91,0h0a.578.578,0,0,1-.557-.425L11.325,43.32h3.854l.634,4.763Zm3.993-6.9-.641-4.821,4.715.019v4.8Zm6.207,0V36.393l4.695.019-.63,4.775Zm-9-4.83.643,4.83H10.75L9.443,36.338Zm16.9,11.726H28.56l.629-4.763h3.482l-1.005,4.353A.527.527,0,0,1,31.15,48.083Z" transform="translate(0 -27.609)"/>
</svg>
