<?xml version="1.0" standalone="no"?>
<!DOCTYPE svg PUBLIC "-//W3C//DTD SVG 20010904//EN"
 "http://www.w3.org/TR/2001/REC-SVG-20010904/DTD/svg10.dtd">
<svg version="1.0" xmlns="http://www.w3.org/2000/svg"
 width="678.000000pt" height="678.000000pt" viewBox="0 0 678.000000 678.000000"
 preserveAspectRatio="xMidYMid meet">
<metadata>
Created by potrace 1.14, written by Peter Selinger 2001-2017
</metadata>
<g transform="translate(0.000000,678.000000) scale(0.100000,-0.100000)"
fill="#000000" stroke="none">
<path d="M2398 6776 c-1 -2 -43 -6 -93 -10 -49 -3 -103 -9 -119 -12 -15 -2
-47 -7 -70 -9 -22 -2 -52 -7 -66 -9 -44 -10 -74 -16 -110 -22 -73 -12 -319
-103 -390 -144 -8 -5 -37 -21 -65 -35 -27 -14 -59 -31 -70 -38 -51 -32 -110
-71 -115 -77 -3 -3 -34 -28 -70 -55 -64 -49 -209 -176 -304 -267 -43 -41 -50
-45 -63 -32 -41 41 -179 83 -290 88 -86 4 -135 -5 -158 -28 -9 -9 -22 -16 -28
-16 -22 0 -62 -45 -89 -100 -17 -37 -28 -80 -33 -130 -3 -41 -9 -88 -11 -105
-3 -16 -7 -70 -9 -120 -2 -49 -7 -103 -10 -120 -19 -99 -25 -136 -30 -185 -4
-30 -9 -68 -11 -85 -3 -16 -7 -48 -9 -70 -1 -22 -5 -53 -8 -70 -3 -16 -8 -50
-11 -75 -3 -25 -8 -56 -10 -70 -3 -14 -7 -47 -10 -75 -3 -27 -9 -75 -13 -105
-4 -30 -7 -74 -7 -97 -1 -24 -4 -43 -8 -43 -4 0 -7 -51 -7 -112 0 -62 -3 -129
-7 -149 -8 -46 13 -87 64 -127 32 -26 38 -37 40 -74 2 -24 5 -54 7 -68 2 -14
7 -45 10 -70 3 -25 12 -76 20 -115 8 -38 17 -83 20 -100 3 -16 8 -45 11 -64
20 -145 113 -447 228 -745 49 -127 80 -187 169 -334 32 -51 57 -97 57 -102 0
-4 3 -10 8 -12 4 -1 17 -22 30 -46 22 -40 147 -223 183 -267 9 -11 43 -51 75
-90 33 -38 71 -86 86 -106 l27 -36 -47 -21 c-56 -24 -117 -49 -233 -93 l-87
-33 26 -51 c14 -27 37 -68 51 -90 13 -22 24 -42 24 -45 -1 -11 74 -120 127
-185 72 -88 215 -226 356 -345 16 -13 58 -43 94 -67 36 -23 84 -56 107 -73 23
-16 46 -30 52 -30 5 0 11 -4 13 -9 6 -16 171 -114 308 -181 25 -12 53 -27 63
-31 25 -13 170 -70 187 -74 8 -2 31 -9 50 -15 43 -13 116 -22 189 -24 51 -1
57 -3 79 -36 34 -50 107 -114 175 -152 32 -18 64 -38 70 -43 17 -14 306 -157
309 -153 2 1 18 -7 36 -20 17 -13 32 -21 32 -18 0 3 21 -5 48 -18 138 -69 432
-175 530 -192 43 -7 124 -22 162 -30 42 -8 216 -9 283 -1 26 3 71 9 100 12 66
9 157 42 180 67 45 47 56 121 23 158 -8 8 -29 42 -47 75 -18 33 -51 92 -74
130 -73 121 -76 115 62 115 266 1 409 12 522 41 87 22 113 37 137 79 13 21 26
30 44 30 35 0 85 43 126 108 19 29 34 55 34 57 0 3 18 35 40 71 22 36 40 67
40 69 0 2 40 69 78 130 7 11 64 103 127 205 63 102 119 192 125 200 6 8 21 32
33 52 40 68 131 213 136 218 3 3 15 22 26 42 57 105 145 255 157 268 28 32 58
79 58 92 0 7 11 26 25 41 40 42 365 476 365 486 0 5 3 11 8 13 4 2 22 23 39
47 17 24 54 67 82 95 98 104 109 159 50 246 -38 57 -106 96 -183 106 -39 6
-54 16 -110 73 -97 99 -153 172 -218 281 -17 30 -40 69 -50 85 -10 17 -24 42
-31 58 -6 15 -15 27 -19 27 -4 0 -8 6 -8 14 0 8 -6 21 -13 28 -7 7 -24 36 -38
63 -13 28 -26 52 -29 55 -3 3 -20 32 -37 65 -36 71 -130 251 -146 280 -6 11
-12 22 -12 25 -1 3 -15 34 -32 70 -17 36 -34 81 -38 100 -4 19 -18 57 -31 84
-13 28 -24 53 -24 57 0 3 -10 28 -22 55 -12 27 -22 51 -23 54 0 3 -3 10 -6 15
-4 6 -12 28 -19 50 -7 22 -18 54 -25 70 -20 47 -39 99 -41 110 -4 18 -73 185
-106 253 -73 154 -144 222 -233 226 -40 2 -51 7 -69 31 -69 96 -460 482 -647
640 -57 48 -338 235 -354 235 -2 0 -41 22 -87 48 -80 46 -205 109 -220 111 -5
1 -24 10 -43 21 -20 11 -42 20 -51 20 -8 0 -37 11 -64 25 -28 14 -52 25 -55
25 -3 0 -10 2 -17 5 -57 17 -88 26 -107 30 -13 2 -31 7 -41 10 -10 3 -29 8
-42 10 -61 12 -84 18 -93 25 -10 8 -45 17 -95 24 -14 2 -47 8 -75 12 -27 4
-52 8 -55 9 -3 1 -34 5 -70 10 -36 4 -74 10 -85 12 -25 5 -472 13 -477 9z"/>
</g>
</svg>
