<?xml version="1.0" standalone="no"?>
<!DOCTYPE svg PUBLIC "-//W3C//DTD SVG 20010904//EN"
 "http://www.w3.org/TR/2001/REC-SVG-20010904/DTD/svg10.dtd">
<svg version="1.0" xmlns="http://www.w3.org/2000/svg"
 width="1152.000000pt" height="1152.000000pt" viewBox="0 0 1152.000000 1152.000000"
 preserveAspectRatio="xMidYMid meet">
<metadata>
Created by potrace 1.14, written by Peter Selinger 2001-2017
</metadata>
<g transform="translate(0.000000,1152.000000) scale(0.100000,-0.100000)"
fill="#000000" stroke="none">
<path d="M3165 11507 c-5 -7 -28 -35 -50 -62 -22 -28 -43 -51 -47 -53 -5 -2
-8 -8 -8 -14 0 -5 -19 -33 -42 -63 -24 -29 -56 -73 -73 -96 -16 -23 -45 -62
-62 -86 -18 -23 -30 -43 -25 -43 4 0 2 -4 -4 -8 -11 -7 -143 -203 -157 -232
-4 -8 -15 -27 -25 -42 -54 -84 -126 -208 -188 -328 -16 -30 -32 -57 -37 -58
-4 -2 -5 -8 -1 -13 3 -5 0 -9 -5 -9 -6 0 -11 -4 -11 -10 0 -5 -27 -63 -59
-130 -33 -66 -58 -120 -56 -120 3 0 -4 -15 -15 -32 -11 -18 -20 -41 -20 -50 0
-10 -3 -18 -8 -18 -7 0 -32 -63 -34 -87 -1 -7 -5 -13 -10 -13 -4 0 -8 -8 -8
-18 0 -10 -4 -22 -9 -28 -11 -11 -49 -117 -113 -309 -27 -82 -52 -157 -55
-165 -3 -8 -7 -22 -8 -30 -1 -8 -10 -42 -19 -75 -16 -57 -20 -75 -30 -120 -2
-11 -14 -63 -26 -115 -12 -52 -24 -106 -26 -120 -2 -14 -9 -47 -14 -75 -5 -27
-12 -68 -15 -90 -3 -22 -8 -53 -10 -70 -11 -69 -22 -165 -30 -275 -3 -41 -8
-97 -10 -125 -5 -59 -5 -472 0 -530 2 -22 6 -80 9 -130 4 -49 9 -101 11 -115
5 -25 15 -102 20 -150 9 -77 17 -125 22 -133 3 -5 7 -24 8 -41 4 -44 8 -67 60
-296 2 -8 11 -41 19 -72 9 -32 23 -84 31 -115 9 -32 18 -65 22 -73 3 -8 7 -20
9 -27 7 -35 88 -269 95 -278 5 -5 9 -18 9 -30 0 -12 5 -26 11 -32 6 -6 12 -17
13 -24 3 -16 5 -19 64 -159 60 -144 208 -456 222 -470 3 -3 12 -18 20 -35 8
-16 19 -33 25 -37 5 -4 6 -8 2 -8 -4 0 8 -25 28 -55 19 -30 36 -58 36 -63 2
-7 29 -54 56 -97 7 -11 22 -36 32 -55 16 -29 142 -223 180 -280 58 -83 96
-136 103 -138 4 -2 8 -8 8 -14 0 -9 152 -221 170 -238 4 -4 62 -78 97 -125 5
-6 22 -26 38 -46 17 -20 44 -53 60 -73 17 -21 35 -43 40 -49 6 -7 35 -41 65
-77 71 -84 116 -135 161 -182 20 -21 35 -38 34 -38 -5 0 124 -136 267 -282
l118 -121 82 85 c96 98 174 182 273 293 39 43 79 88 90 100 11 13 38 44 60 71
22 27 47 55 55 64 8 8 27 30 41 49 l26 33 -57 117 c-63 126 -80 162 -105 231
-9 25 -21 54 -25 65 -5 11 -14 38 -21 60 -6 22 -14 47 -17 55 -3 8 -6 20 -7
25 -2 6 -10 39 -20 75 -67 257 -95 587 -71 830 3 36 8 88 11 115 3 28 7 59 10
71 2 12 7 39 10 60 8 48 75 315 83 329 4 6 7 15 8 20 3 17 92 258 113 305 11
25 20 48 21 52 1 4 30 66 66 138 36 71 63 131 62 133 -2 2 5 11 15 21 9 10 17
24 17 32 0 8 4 14 9 14 5 0 11 8 14 18 8 22 46 89 75 129 12 17 22 34 22 37 0
6 110 176 120 186 3 3 14 19 24 35 25 39 133 187 171 235 17 20 41 52 55 70
14 18 31 39 38 46 6 7 12 18 12 24 0 6 4 9 9 5 5 -3 12 3 15 12 4 10 21 34 39
54 17 20 52 60 77 89 25 29 59 68 75 86 17 18 68 74 115 125 103 113 378 386
491 489 45 41 97 90 116 108 18 17 36 32 38 32 3 0 23 18 45 40 22 22 44 40
49 40 5 0 11 4 13 9 3 7 89 84 166 147 13 10 33 27 45 38 53 46 323 260 437
346 68 52 131 100 140 107 59 46 192 143 196 143 3 0 10 5 17 10 7 6 30 24 52
40 22 16 45 33 50 37 6 5 30 21 55 38 25 16 47 32 50 35 3 3 41 30 85 60 44
29 82 57 85 60 3 4 10 9 15 11 11 5 277 181 285 189 3 3 14 10 25 17 21 12
107 67 207 131 156 101 519 322 528 322 6 0 10 5 10 10 0 6 4 10 9 10 7 0 163
89 211 120 8 6 22 13 30 17 8 4 17 9 20 12 5 6 51 32 105 59 17 9 32 18 35 21
3 4 23 15 45 26 22 11 42 23 45 26 9 10 300 169 310 169 6 0 10 5 10 11 0 5 4
8 9 5 5 -4 11 -3 13 1 1 5 19 16 38 27 50 26 180 95 290 153 52 28 140 74 195
103 55 28 104 56 110 61 6 6 -334 8 -889 7 -843 -3 -898 -4 -907 -20 -6 -10
-19 -18 -29 -18 -11 0 -20 -4 -20 -9 0 -5 -15 -15 -32 -22 -18 -7 -42 -21 -52
-31 -11 -10 -24 -18 -28 -18 -8 0 -21 -8 -95 -58 -18 -12 -39 -22 -47 -22 -8
0 -16 -4 -18 -8 -3 -8 -295 -192 -305 -192 -2 0 -9 -5 -16 -11 -16 -14 -178
-119 -183 -119 -7 0 -68 -44 -76 -55 -5 -7 -8 -7 -8 0 0 7 -3 7 -8 0 -10 -15
-101 -75 -112 -75 -6 0 -10 -4 -10 -10 0 -5 -6 -10 -14 -10 -8 0 -16 -4 -18
-8 -1 -4 -48 -38 -103 -74 -55 -36 -138 -93 -185 -126 -170 -118 -296 -208
-311 -220 -14 -12 -94 -70 -157 -114 -18 -13 -39 -28 -45 -34 -7 -5 -46 -35
-87 -66 -41 -31 -91 -69 -111 -84 -20 -16 -51 -40 -69 -54 -19 -14 -73 -56
-121 -95 -47 -38 -104 -83 -125 -100 -20 -16 -42 -35 -48 -40 -6 -6 -36 -30
-66 -55 -62 -51 -102 -85 -138 -118 -14 -13 -41 -35 -60 -50 -19 -15 -49 -40
-67 -57 -17 -16 -52 -47 -76 -69 -153 -135 -240 -217 -454 -431 -132 -132
-277 -280 -320 -329 -44 -49 -87 -96 -95 -105 -8 -9 -51 -59 -95 -111 -44 -52
-82 -97 -85 -100 -13 -13 -130 -161 -169 -215 -24 -33 -48 -61 -53 -63 -4 -2
-8 -10 -8 -17 0 -7 -4 -15 -8 -17 -4 -1 -38 -46 -75 -98 -37 -52 -70 -99 -75
-105 -4 -5 -19 -28 -32 -50 -13 -22 -28 -41 -32 -43 -4 -2 -8 -10 -8 -18 0 -8
-4 -14 -10 -14 -5 0 -10 -5 -10 -11 0 -6 -13 -30 -30 -54 -16 -24 -30 -48 -30
-54 0 -6 -4 -11 -10 -11 -5 0 -10 -6 -10 -14 0 -8 -3 -16 -7 -18 -5 -1 -17
-21 -28 -43 -11 -22 -23 -42 -26 -45 -7 -5 -151 -276 -168 -315 -5 -11 -24
-54 -43 -95 -19 -41 -56 -129 -82 -195 -26 -66 -51 -129 -56 -140 -11 -25 -41
-122 -44 -138 -1 -7 -4 -16 -7 -22 -6 -10 -17 -50 -25 -90 -9 -46 -43 -149
-44 -135 -1 8 -3 24 -4 35 -8 57 -19 155 -21 193 -1 23 -5 45 -8 49 -4 3 -2
14 4 24 5 11 6 19 1 19 -9 0 -8 270 2 380 8 91 36 275 52 340 3 14 7 36 9 50
2 14 4 25 5 25 1 0 3 8 5 18 5 24 65 239 72 257 3 8 7 20 8 27 4 15 73 202 85
228 33 74 50 116 50 129 0 8 5 16 11 18 5 2 11 10 13 18 4 22 114 240 156 310
8 14 13 28 12 33 -1 4 2 7 6 7 4 0 21 25 37 55 15 30 32 55 37 55 4 0 7 3 6 8
-2 4 22 45 52 92 30 47 57 89 59 95 2 5 8 14 13 20 5 5 55 74 111 151 97 135
139 191 162 217 6 7 26 32 45 57 19 24 42 52 50 60 8 9 33 37 55 64 22 27 49
58 60 70 11 12 56 62 100 111 144 160 453 465 646 637 68 60 77 68 159 138 29
25 58 51 65 58 8 6 19 12 26 12 7 0 9 3 6 7 -4 3 12 20 36 37 23 17 44 33 47
37 4 5 102 83 205 164 22 17 56 44 76 60 21 17 77 59 126 95 48 36 92 68 98
73 44 33 111 81 170 122 39 27 72 51 75 54 3 3 13 11 22 16 9 6 101 67 205
136 253 170 392 259 403 259 6 0 10 5 10 10 0 7 -259 10 -758 10 -831 0 -754
5 -819 -50 -7 -5 -15 -10 -18 -10 -2 0 -15 -9 -27 -19 -13 -10 -88 -70 -168
-133 -80 -62 -156 -123 -169 -133 -138 -114 -217 -182 -314 -267 -32 -29 -68
-60 -80 -71 -85 -73 -198 -180 -381 -362 -224 -223 -339 -345 -476 -506 -25
-29 -53 -61 -62 -71 -10 -10 -18 -20 -18 -23 0 -3 -8 -13 -17 -23 -25 -26 -51
-57 -108 -132 -28 -36 -56 -69 -62 -73 -7 -4 -13 -14 -13 -22 0 -7 -4 -15 -9
-17 -21 -8 -411 -581 -411 -604 0 -3 -15 -29 -34 -59 -19 -29 -32 -56 -29 -59
4 -3 1 -6 -5 -6 -7 0 -12 -4 -12 -9 0 -5 -16 -37 -35 -71 -19 -34 -35 -68 -35
-75 0 -7 -4 -15 -9 -17 -11 -4 -141 -278 -141 -298 0 -6 -5 -10 -12 -10 -6 0
-9 -3 -5 -6 3 -3 -9 -42 -28 -87 -33 -82 -45 -114 -51 -132 -2 -5 -15 -41 -29
-80 -29 -84 -28 -78 -26 -88 1 -5 -2 -6 -7 -3 -14 9 -4 407 14 516 3 19 7 53
10 75 3 22 6 51 8 65 2 14 6 39 9 55 9 41 19 95 22 122 2 12 6 26 9 31 3 4 8
31 12 58 3 27 10 51 15 52 5 2 7 7 5 11 -5 7 37 181 47 198 3 5 8 20 11 34 2
13 21 71 41 129 20 58 38 110 39 115 2 6 7 19 11 30 5 11 17 43 27 70 23 62
29 75 62 147 14 31 26 59 26 61 0 3 23 53 50 111 28 58 50 109 50 112 -1 4 2
10 7 13 5 3 26 40 48 81 21 41 51 97 67 123 15 26 28 52 28 57 0 6 5 10 10 10
6 0 10 5 10 10 0 6 16 36 35 66 19 30 35 57 35 59 0 6 225 340 257 381 13 16
55 72 95 124 109 143 273 337 383 454 28 30 69 74 93 100 l43 46 -583 0 c-447
-1 -585 -4 -593 -13z"/>
<path d="M6941 7972 c-71 -63 -338 -328 -443 -440 -63 -66 -83 -102 -58 -102
6 0 10 -4 10 -9 0 -5 17 -38 39 -73 49 -82 111 -206 140 -283 13 -33 27 -69
32 -80 9 -20 40 -122 55 -180 4 -16 8 -34 10 -40 3 -11 10 -44 26 -130 12 -64
15 -93 22 -195 2 -36 5 -69 6 -75 1 -5 2 -13 1 -17 0 -4 -3 -67 -6 -140 -5
-164 -4 -158 -59 -428 -10 -50 -46 -183 -62 -228 -9 -26 -17 -54 -19 -62 -2
-8 -20 -60 -40 -115 -20 -55 -37 -104 -38 -110 -1 -5 -4 -12 -7 -15 -3 -3 -16
-32 -29 -65 -41 -102 -241 -505 -261 -525 -4 -4 -24 -39 -54 -95 -6 -11 -14
-22 -17 -25 -3 -3 -16 -24 -29 -47 -13 -24 -27 -43 -32 -43 -4 0 -8 -6 -8 -13
0 -10 -95 -161 -128 -202 -4 -5 -45 -63 -91 -128 -45 -65 -88 -123 -95 -130
-6 -6 -23 -28 -36 -47 -23 -33 -168 -218 -193 -246 -7 -7 -16 -19 -22 -26 -42
-54 -116 -142 -180 -214 -11 -12 -39 -44 -61 -71 -23 -26 -62 -70 -88 -96 -25
-27 -46 -50 -46 -52 0 -11 -663 -685 -674 -685 -2 0 -35 -30 -74 -67 -59 -58
-136 -129 -251 -232 -14 -13 -44 -40 -66 -60 -22 -20 -69 -61 -104 -91 -36
-30 -74 -64 -86 -75 -12 -11 -34 -31 -51 -45 -16 -14 -58 -50 -94 -80 -36 -30
-76 -64 -89 -75 -13 -11 -35 -30 -49 -43 -14 -12 -47 -39 -74 -59 -26 -21 -48
-41 -48 -45 0 -4 -5 -8 -10 -8 -9 0 -33 -19 -98 -78 -14 -12 -28 -22 -31 -22
-3 0 -25 -18 -49 -40 -24 -22 -47 -40 -52 -40 -4 0 -10 -4 -12 -8 -2 -7 -226
-183 -361 -286 -16 -11 -34 -26 -40 -31 -7 -6 -48 -37 -92 -70 -44 -32 -84
-63 -90 -67 -18 -15 -328 -243 -380 -278 -27 -19 -55 -39 -61 -45 -6 -5 -22
-17 -34 -25 -12 -8 -42 -30 -66 -47 -23 -18 -48 -33 -53 -33 -6 0 -11 -4 -11
-8 0 -4 -15 -16 -32 -27 -18 -10 -35 -21 -38 -24 -3 -4 -32 -24 -65 -46 -33
-22 -62 -42 -65 -45 -5 -6 -109 -77 -139 -95 -34 -22 -196 -130 -201 -135 -3
-3 -36 -25 -75 -50 -38 -25 -72 -47 -75 -50 -3 -3 -17 -11 -32 -19 -15 -8 -37
-23 -48 -33 -11 -10 -20 -16 -20 -13 0 3 -11 -2 -25 -11 -14 -9 -25 -20 -25
-24 0 -4 325 -7 723 -6 l722 1 40 30 c22 16 42 32 45 35 3 3 32 23 64 45 33
22 64 44 70 50 6 5 34 26 61 45 28 19 55 39 62 45 6 5 37 28 68 50 31 22 65
47 75 55 10 8 28 22 40 30 12 8 36 27 54 42 17 15 37 28 44 28 6 0 12 3 12 8
0 4 39 36 88 72 48 35 89 67 92 70 3 3 55 44 115 90 61 46 115 89 121 95 6 5
26 21 44 35 36 27 88 69 106 85 6 5 28 24 50 40 21 17 54 44 74 60 20 17 56
46 80 65 24 19 48 40 54 45 13 12 67 57 127 107 24 20 54 44 65 55 27 23 121
104 154 133 74 63 136 118 159 139 14 13 55 49 90 80 35 31 81 72 101 91 21
19 93 87 161 150 140 130 597 585 704 701 134 144 180 195 245 269 36 41 75
85 88 98 12 12 22 25 22 28 0 3 12 18 28 33 15 15 38 42 52 60 14 18 34 42 45
55 11 13 36 42 54 66 19 23 41 48 48 56 7 7 13 15 13 18 0 3 8 14 18 24 23 25
39 46 92 117 25 33 50 65 55 71 6 6 18 22 28 35 9 13 51 70 92 127 41 56 75
106 75 112 0 5 6 13 13 17 17 11 183 262 219 331 6 12 15 22 20 22 4 0 8 4 8
9 0 5 30 61 68 123 37 63 83 146 102 184 19 38 38 71 41 74 13 12 166 340 175
375 3 14 9 25 13 25 4 0 12 15 18 33 6 17 25 70 43 117 66 177 87 239 89 263
1 4 5 7 9 7 8 0 11 -27 18 -165 1 -33 3 -62 4 -65 2 -6 2 -205 0 -205 0 0 -3
-38 -5 -85 -2 -47 -7 -105 -10 -130 -4 -25 -8 -58 -9 -75 -2 -16 -6 -50 -10
-75 -4 -25 -10 -58 -12 -74 -3 -16 -7 -32 -9 -36 -2 -3 -6 -26 -9 -51 -3 -24
-12 -68 -20 -97 -8 -29 -15 -55 -15 -57 -1 -3 -1 -6 -2 -7 0 -2 -2 -10 -4 -18
-1 -8 -8 -35 -15 -60 -7 -25 -13 -52 -15 -60 -11 -58 -145 -421 -202 -550 -45
-101 -162 -334 -213 -425 -28 -49 -53 -98 -56 -107 -4 -10 -10 -18 -15 -18 -5
0 -9 -4 -9 -10 0 -11 -76 -138 -135 -225 -22 -33 -46 -73 -54 -88 -8 -15 -18
-27 -23 -27 -4 0 -8 -5 -8 -12 0 -6 -7 -20 -17 -30 -9 -10 -21 -27 -27 -37 -6
-10 -31 -47 -56 -81 -25 -35 -52 -73 -60 -85 -14 -20 -119 -159 -147 -195 -7
-8 -36 -44 -64 -80 -28 -36 -68 -85 -89 -110 -21 -25 -66 -79 -100 -120 -34
-41 -73 -85 -86 -97 -13 -12 -24 -25 -24 -28 0 -4 -6 -12 -12 -19 -7 -8 -53
-58 -103 -112 -107 -116 -119 -129 -301 -315 -172 -176 -408 -401 -564 -539
-34 -30 -76 -68 -94 -84 -17 -16 -51 -45 -75 -65 -25 -20 -54 -45 -65 -56 -12
-11 -43 -38 -70 -60 -27 -22 -54 -44 -60 -50 -17 -16 -176 -146 -231 -190 -27
-22 -51 -43 -53 -47 -2 -5 -9 -8 -14 -8 -6 0 -18 -7 -27 -15 -28 -27 -74 -64
-148 -118 -39 -28 -72 -55 -72 -59 -1 -5 306 -8 682 -8 l682 0 36 33 c21 17
62 55 93 82 323 286 742 700 1003 991 101 113 258 295 308 358 17 21 38 47 49
59 10 12 55 69 99 127 45 58 85 110 89 115 5 6 22 28 38 50 16 22 36 49 45 60
8 11 37 52 64 90 27 39 56 78 65 88 9 9 13 17 9 17 -5 0 -3 4 2 8 15 10 255
376 255 388 0 3 15 29 34 57 19 29 46 75 61 102 14 28 38 70 52 95 45 80 210
413 238 480 15 36 35 83 44 105 23 52 46 109 46 115 0 3 6 14 12 25 6 11 12
25 13 30 1 6 7 21 12 35 5 14 11 32 13 40 3 14 49 151 76 225 6 17 11 35 12
40 2 6 6 16 10 23 5 6 6 12 3 12 -2 0 4 30 15 68 25 85 80 328 95 417 2 17 6
51 8 77 2 26 6 51 9 55 7 12 21 147 21 201 -1 23 0 42 2 42 5 0 45 -114 71
-200 97 -329 142 -594 157 -930 2 -47 5 -89 6 -95 1 -5 2 -12 1 -15 -1 -3 -4
-70 -6 -150 -6 -223 -17 -314 -69 -605 -9 -49 -39 -166 -62 -244 -14 -47 -27
-93 -29 -101 -5 -25 -52 -162 -69 -201 -8 -20 -12 -39 -9 -43 4 -3 1 -6 -5 -6
-7 0 -12 -9 -12 -20 0 -18 -17 -57 -30 -70 -3 -3 -6 -12 -8 -20 -2 -8 -9 -28
-16 -45 -8 -16 -26 -59 -42 -95 -16 -36 -32 -67 -36 -68 -4 -2 -8 -10 -8 -18
0 -8 -15 -43 -34 -77 -18 -34 -47 -87 -63 -117 -48 -90 -85 -153 -103 -180
-10 -14 -26 -41 -37 -60 -20 -38 -154 -242 -163 -250 -4 -3 -21 -27 -40 -55
-19 -27 -36 -52 -39 -55 -3 -3 -31 -39 -63 -80 -31 -41 -66 -86 -78 -100 -12
-14 -30 -35 -41 -48 -10 -12 -19 -26 -19 -31 0 -5 -4 -11 -8 -13 -5 -2 -30
-28 -56 -58 -176 -204 -395 -424 -584 -588 l-82 -72 630 0 c346 0 630 4 630 8
0 4 21 31 48 59 56 62 129 147 195 228 28 35 141 181 162 210 11 16 26 34 33
41 6 7 12 17 12 22 0 6 3 12 8 14 4 1 18 19 32 38 39 55 187 277 191 287 2 4
41 70 87 146 45 76 82 143 82 148 0 5 5 9 12 9 6 0 8 3 5 7 -4 3 -3 11 2 17
13 15 101 191 101 201 0 5 6 16 13 24 15 17 110 234 153 347 29 77 93 253 93
257 0 1 2 9 5 17 23 73 49 159 52 175 2 11 12 50 23 88 11 37 17 67 14 67 -3
0 0 7 7 15 7 8 10 15 7 15 -4 0 -1 19 19 105 12 52 45 233 49 274 2 20 7 59
11 86 4 28 8 64 9 80 2 17 7 75 11 130 16 185 10 625 -11 790 -2 17 -6 53 -10
80 -3 28 -8 64 -9 80 -2 17 -6 44 -10 60 -3 17 -8 46 -11 65 -2 19 -16 89 -30
155 -15 66 -29 131 -32 145 -19 88 -123 434 -150 500 -3 8 -7 17 -8 20 -1 3
-5 14 -9 25 -16 40 -19 50 -21 55 -2 7 -24 62 -32 80 -3 8 -7 17 -8 20 -1 5
-7 18 -68 160 -17 41 -36 78 -40 81 -5 3 -8 9 -7 13 1 7 -140 297 -150 306 -3
3 -15 23 -27 45 -11 22 -31 58 -44 80 -12 22 -29 51 -36 65 -8 14 -22 37 -31
51 -9 15 -35 55 -56 90 -77 126 -211 324 -223 332 -7 4 -13 12 -13 17 0 17
-265 362 -393 513 -11 12 -33 39 -50 60 -18 21 -45 53 -62 71 -16 18 -59 66
-95 107 -156 176 -436 460 -660 669 -67 63 -136 130 -153 148 -17 17 -35 32
-41 32 -6 0 -40 -26 -75 -58z"/>
</g>
</svg>
